<svg width="269" height="263" viewBox="0 0 269 263" fill="none" xmlns="http://www.w3.org/2000/svg">
<path d="M25.4032 123.264L25.5335 121.409C25.2445 121.371 24.9993 121.306 24.7981 121.212C24.597 121.118 24.4352 120.998 24.3128 120.853C24.1904 120.707 24.1052 120.535 24.0573 120.337C24.0093 120.139 23.9938 119.919 24.0108 119.677C24.0235 119.497 24.0549 119.333 24.105 119.186C24.1592 119.044 24.2345 118.917 24.3308 118.804C24.4177 118.7 24.5236 118.608 24.6486 118.528C24.7733 118.453 24.9147 118.39 25.073 118.339C25.3035 118.267 25.5699 118.219 25.8721 118.196C26.1784 118.178 26.5229 118.182 26.9056 118.209L28.2121 118.3C28.4936 118.32 28.7544 118.352 28.9945 118.395C29.239 118.439 29.4604 118.496 29.6587 118.568C29.913 118.661 30.1326 118.776 30.3175 118.912C30.5065 119.054 30.6474 119.219 30.7403 119.406C30.7945 119.516 30.8326 119.634 30.8547 119.759C30.8766 119.889 30.8824 120.027 30.8722 120.172C30.853 120.445 30.7992 120.675 30.7108 120.864C30.6265 121.057 30.5093 121.214 30.3593 121.337C30.2052 121.454 30.018 121.538 29.7978 121.589C29.5773 121.644 29.3235 121.671 29.0363 121.668L28.9064 123.517C29.411 123.508 29.8693 123.434 30.2813 123.295C30.6934 123.156 31.0482 122.95 31.3457 122.679C31.6433 122.408 31.8814 122.071 32.06 121.668C32.2383 121.269 32.3461 120.806 32.3832 120.278C32.4082 119.921 32.3856 119.584 32.3151 119.265C32.2488 118.951 32.1412 118.658 31.9923 118.386C31.8147 118.082 31.5911 117.805 31.3212 117.557C31.0514 117.308 30.7388 117.1 30.3836 116.934C30.0932 116.789 29.7742 116.674 29.4266 116.588C29.0834 116.502 28.7182 116.445 28.3311 116.418L27.0379 116.327C26.6244 116.298 26.2306 116.304 25.8564 116.344C25.482 116.389 25.1363 116.464 24.8194 116.57C24.5022 116.68 24.2094 116.821 23.9409 116.992C23.6722 117.168 23.439 117.373 23.2413 117.607C23.0289 117.862 22.8581 118.153 22.7291 118.48C22.6041 118.811 22.5277 119.175 22.4998 119.571C22.4646 120.073 22.505 120.536 22.6211 120.96C22.7415 121.384 22.9276 121.755 23.1793 122.073C23.431 122.392 23.7442 122.653 24.119 122.856C24.4934 123.063 24.9215 123.2 25.4032 123.264Z" fill="black"/>
<path d="M22.3152 128.639L22.4464 132.071C22.4641 132.533 22.5216 132.942 22.619 133.296C22.7209 133.654 22.8626 133.953 23.0438 134.193C23.2207 134.434 23.4394 134.613 23.6999 134.731C23.9605 134.853 24.2605 134.908 24.5998 134.895C24.7893 134.888 24.9687 134.848 25.138 134.775C25.3073 134.702 25.46 134.597 25.5959 134.459C25.723 134.322 25.8337 134.156 25.9278 133.963C26.0263 133.769 26.0994 133.546 26.1471 133.292L26.1573 133.213C26.2258 133.391 26.3047 133.549 26.3938 133.687C26.4875 133.829 26.587 133.949 26.6922 134.046C26.834 134.178 26.99 134.275 27.1602 134.339C27.3303 134.404 27.5101 134.432 27.6996 134.425C28.0345 134.412 28.3248 134.33 28.5706 134.179C28.8165 134.033 29.0183 133.827 29.1758 133.56C29.3287 133.289 29.4377 132.965 29.5027 132.587C29.5722 132.214 29.5982 131.796 29.5805 131.333L29.467 128.364L22.3152 128.639ZM25.3665 130.362L25.4274 131.956C25.435 132.154 25.4216 132.323 25.3871 132.461C25.3529 132.603 25.2999 132.718 25.2282 132.805C25.1651 132.886 25.088 132.947 24.9968 132.986C24.91 133.024 24.8115 133.046 24.7014 133.05C24.578 133.055 24.4693 133.039 24.3752 133.003C24.2812 132.967 24.1994 132.906 24.1299 132.82C24.065 132.739 24.0124 132.631 23.9719 132.495C23.9358 132.36 23.9142 132.2 23.9072 132.014L23.8462 130.421L25.3665 130.362ZM26.6157 130.314L28.0633 130.259L28.1065 131.389C28.1148 131.605 28.1042 131.791 28.0749 131.947C28.0457 132.107 27.9976 132.235 27.9306 132.33C27.8721 132.416 27.7974 132.481 27.7064 132.524C27.6198 132.567 27.5148 132.591 27.3914 132.596C27.2812 132.6 27.1834 132.581 27.098 132.541C27.0128 132.504 26.9398 132.443 26.8792 132.357C26.8185 132.271 26.7702 132.16 26.7341 132.025C26.698 131.889 26.6742 131.729 26.6628 131.544L26.6157 130.314Z" fill="black"/>
<path d="M31.1093 146.121L30.5932 142.626C30.5242 142.159 30.4035 141.748 30.231 141.395C30.059 141.046 29.8494 140.758 29.602 140.531C29.3546 140.305 29.0766 140.143 28.768 140.046C28.4645 139.953 28.1426 139.931 27.8023 139.982C27.3705 140.045 27.0018 140.22 26.6963 140.506C26.3908 140.792 26.1771 141.156 26.0551 141.598L23.0355 140.439L23.31 142.298L25.9969 143.332L26.2404 144.982L23.7604 145.349L24.0291 147.169L31.1093 146.121ZM28.0187 141.809C28.1321 141.792 28.2469 141.8 28.363 141.832C28.4835 141.863 28.5967 141.92 28.7025 142.002C28.8039 142.085 28.8936 142.195 28.9716 142.33C29.0502 142.47 29.1043 142.641 29.134 142.841L29.3814 144.517L27.523 144.792L27.2678 143.064C27.2395 142.872 27.2412 142.702 27.2729 142.555C27.309 142.407 27.3639 142.281 27.4376 142.176C27.5113 142.071 27.5992 141.987 27.7012 141.923C27.8038 141.863 27.9096 141.825 28.0187 141.809Z" fill="black"/>
<path d="M27.197 152.194C26.8172 152.293 26.5147 152.47 26.2894 152.725C26.0642 152.98 25.903 153.279 25.8059 153.624C25.7035 153.965 25.6585 154.335 25.6711 154.733C25.6848 155.135 25.7423 155.53 25.8435 155.919C25.967 156.393 26.1274 156.816 26.3248 157.188C26.5232 157.565 26.7499 157.875 27.0048 158.119C27.2596 158.362 27.5362 158.531 27.8345 158.627C28.1382 158.725 28.4543 158.732 28.7829 158.646C29.0176 158.585 29.2198 158.486 29.3896 158.351C29.5605 158.22 29.6979 158.056 29.8018 157.86C29.871 157.724 29.9251 157.573 29.9641 157.408C30.0042 157.247 30.0291 157.071 30.039 156.882C30.1366 157.011 30.2377 157.129 30.3425 157.234C30.4516 157.337 30.5611 157.425 30.6709 157.497C30.8529 157.618 31.0425 157.698 31.2397 157.738C31.4369 157.778 31.6315 157.772 31.8235 157.722C32.1521 157.636 32.4222 157.484 32.6339 157.265C32.8467 157.049 33.0029 156.783 33.1023 156.465C33.1964 156.144 33.2355 155.779 33.2196 155.368C33.208 154.956 33.141 154.515 33.0186 154.046C32.9096 153.627 32.7576 153.245 32.5626 152.9C32.372 152.553 32.1514 152.266 31.901 152.04C31.6452 151.81 31.3639 151.649 31.057 151.556C30.7556 151.466 30.4406 151.464 30.112 151.549L30.5743 153.323C30.6938 153.292 30.8093 153.298 30.921 153.342C31.0327 153.386 31.1388 153.461 31.2393 153.566C31.3345 153.669 31.4203 153.797 31.4967 153.951C31.5742 154.108 31.638 154.283 31.6881 154.475C31.7482 154.706 31.7759 154.908 31.7712 155.083C31.7677 155.261 31.7435 155.413 31.6988 155.539C31.6487 155.662 31.5807 155.759 31.4948 155.832C31.4132 155.903 31.3233 155.952 31.2251 155.977C31.127 156.003 31.0302 156.008 30.9349 155.992C30.8395 155.975 30.7471 155.936 30.6577 155.872C30.5952 155.825 30.5336 155.764 30.473 155.688C30.4166 155.612 30.3611 155.521 30.3066 155.417C30.2738 155.344 30.2414 155.263 30.2095 155.176C30.1776 155.088 30.1483 154.993 30.1216 154.891L29.7812 153.585L28.597 153.894L28.9375 155.2C28.9664 155.311 28.9894 155.417 29.0065 155.517C29.0246 155.622 29.0384 155.718 29.0479 155.807C29.059 155.955 29.0523 156.086 29.0278 156.202C29.0087 156.321 28.9718 156.424 28.917 156.511C28.8686 156.588 28.8035 156.653 28.7216 156.706C28.6409 156.764 28.5451 156.807 28.4342 156.836C28.3232 156.865 28.2088 156.863 28.0908 156.83C27.9739 156.801 27.8599 156.74 27.7488 156.645C27.6366 156.547 27.5315 156.415 27.4335 156.249C27.341 156.086 27.2641 155.888 27.2029 155.653C27.1428 155.422 27.1124 155.209 27.1114 155.013C27.1105 154.818 27.1324 154.648 27.1769 154.504C27.2215 154.36 27.2839 154.241 27.3642 154.147C27.45 154.056 27.5483 153.997 27.6592 153.968L27.197 152.194Z" fill="black"/>
<path d="M36.8339 166.213L31.6109 165.32L35.8768 163.696L35.223 161.976L28.5336 164.523L29.1874 166.243L34.4104 167.135L30.1445 168.76L30.7983 170.479L37.4877 167.932L36.8339 166.213Z" fill="black"/>
<path d="M43.8391 186.785L41.7969 190.886L42.9792 192.69L45.52 187.454L50.9718 187.312L49.7931 185.513L44.8655 185.731L44.6152 185.35L48.1611 183.023L47.142 181.468L39.0877 186.753L40.1068 188.308L43.4148 186.137L43.8391 186.785Z" fill="black"/>
<path d="M44.4999 199.455C44.7353 199.741 44.9862 199.949 45.2525 200.078C45.5216 200.211 45.7862 200.293 46.0463 200.324C46.3064 200.356 46.5574 200.352 46.7992 200.313C47.0439 200.277 47.2613 200.232 47.4513 200.178L56.1122 197.749L54.8216 196.181L50.5353 197.595L49.8114 197.84L50.247 197.224L52.4421 193.29L51.1641 191.737L47.7989 198.435L46.9221 198.609C46.8136 198.629 46.7263 198.641 46.6602 198.644C46.5969 198.651 46.4992 198.657 46.3671 198.663C46.2349 198.669 46.0983 198.656 45.9574 198.623C45.8158 198.597 45.6988 198.528 45.6063 198.415C45.5615 198.361 45.5046 198.285 45.4357 198.187C45.3663 198.096 45.3077 198.021 45.2601 197.963L44.0345 198.682C44.1013 198.832 44.1669 198.964 44.2312 199.077C44.2982 199.193 44.3878 199.319 44.4999 199.455Z" fill="black"/>
<path d="M52.116 207.965L53.4314 209.25L55.7886 206.835C55.7838 206.96 55.7884 207.082 55.8023 207.2C55.8161 207.319 55.8378 207.435 55.8672 207.55C55.9224 207.74 56.0041 207.922 56.1121 208.095C56.2203 208.275 56.3595 208.448 56.5299 208.614C56.8516 208.928 57.2018 209.141 57.5804 209.252C57.9591 209.363 58.3476 209.385 58.7459 209.318C59.1381 209.25 59.5323 209.099 59.9287 208.864C60.3282 208.631 60.7098 208.329 61.0734 207.956L61.1705 207.857C61.5495 207.468 61.8504 207.072 62.0733 206.667C62.3024 206.261 62.4443 205.86 62.4988 205.464C62.5503 205.07 62.5116 204.69 62.3825 204.323C62.2566 203.953 62.0311 203.61 61.7062 203.292C61.5485 203.138 61.3833 203.011 61.2106 202.91C61.0441 202.809 60.8748 202.733 60.7027 202.682C60.5588 202.64 60.4119 202.614 60.2621 202.603C60.1154 202.589 59.9657 202.591 59.8131 202.609L60.2557 202.06L59.0396 200.872L52.116 207.965ZM59.855 206.571L59.7579 206.671C59.5515 206.882 59.3369 207.064 59.1142 207.217C58.8945 207.366 58.6743 207.472 58.4537 207.534C58.233 207.595 58.0164 207.603 57.8037 207.555C57.5943 207.511 57.3965 207.398 57.2104 207.216C57.0937 207.102 56.9988 206.988 56.9257 206.873C56.8557 206.756 56.806 206.639 56.7766 206.524C56.7471 206.403 56.7347 206.28 56.7395 206.155C56.7474 206.033 56.771 205.911 56.8101 205.789L58.8992 203.649C59.0296 203.604 59.1572 203.577 59.2818 203.569C59.4096 203.565 59.5361 203.58 59.6612 203.616C59.7708 203.649 59.8789 203.7 59.9858 203.767C60.0957 203.831 60.2042 203.916 60.3115 204.02C60.4976 204.202 60.6168 204.396 60.6691 204.601C60.7246 204.809 60.7287 205.023 60.6813 205.242C60.6278 205.461 60.5275 205.684 60.3805 205.91C60.2397 206.136 60.0645 206.357 59.855 206.571Z" fill="black"/>
<path d="M66.2962 215.193C66.0638 215.011 65.908 214.813 65.8288 214.599C65.7531 214.388 65.7331 214.171 65.7689 213.947C65.7984 213.723 65.8748 213.497 65.998 213.268C66.1239 213.036 66.2725 212.811 66.444 212.592L66.5665 212.436C66.7353 212.221 66.9159 212.026 67.1085 211.852C67.3045 211.681 67.5089 211.552 67.7216 211.467C67.9308 211.379 68.1467 211.346 68.3694 211.37C68.5921 211.393 68.8179 211.494 69.0469 211.674C69.203 211.797 69.3252 211.937 69.4135 212.096C69.5045 212.252 69.5615 212.412 69.5844 212.575C69.6073 212.739 69.5941 212.902 69.5447 213.066C69.4952 213.229 69.4126 213.377 69.2968 213.51L70.6603 214.58C70.9286 214.252 71.1085 213.908 71.2001 213.549C71.2945 213.185 71.3106 212.825 71.2487 212.468C71.1806 212.112 71.0399 211.766 70.8266 211.43C70.6134 211.095 70.3333 210.791 69.9864 210.519C69.5527 210.179 69.1125 209.954 68.6659 209.844C68.2227 209.738 67.7894 209.726 67.3659 209.808C66.9424 209.891 66.5391 210.062 66.1559 210.323C65.7754 210.579 65.43 210.905 65.1197 211.301L64.9972 211.457C64.6869 211.853 64.4512 212.268 64.2901 212.702C64.1351 213.136 64.0679 213.568 64.0885 213.999C64.1057 214.428 64.2206 214.846 64.4331 215.254C64.6484 215.658 64.9746 216.032 65.4118 216.375C65.7345 216.628 66.0792 216.817 66.4461 216.942C66.8192 217.067 67.1858 217.125 67.5459 217.116C67.9061 217.107 68.2466 217.026 68.5674 216.874C68.8918 216.725 69.1648 216.502 69.3865 216.205L68.023 215.135C67.9265 215.272 67.8083 215.373 67.6684 215.437C67.532 215.504 67.3853 215.537 67.2282 215.537C67.0712 215.538 66.9122 215.508 66.7512 215.449C66.5901 215.39 66.4385 215.305 66.2962 215.193Z" fill="black"/>
<path d="M76.6314 220.821L76.8217 224.096L78.8882 225.382L78.4403 220.731L82.4908 219.191L80.5254 217.968L77.4441 219.277L76.6355 218.773L78.0827 216.447L76.5216 215.475L72.7393 221.554L74.3004 222.526L75.7161 220.251L76.6314 220.821Z" fill="black"/>
<path d="M90.3879 223.225L85.9833 226.173L87.9619 222.058L86.3048 221.261L83.2022 227.714L84.8592 228.511L89.2639 225.563L87.2853 229.678L88.9424 230.475L92.045 224.023L90.3879 223.225Z" fill="black"/>
<path d="M101 227.499L96.9397 230.906L98.4617 226.601L96.728 225.988L94.3415 232.739L96.0751 233.352L100.135 229.945L98.6132 234.25L100.347 234.863L102.733 228.112L101 227.499ZM102.777 225.011L101.524 224.568C101.486 224.676 101.431 224.776 101.361 224.868C101.297 224.958 101.218 225.028 101.125 225.08C101.027 225.134 100.913 225.164 100.785 225.17C100.661 225.177 100.519 225.153 100.361 225.097C100.199 225.04 100.07 224.969 99.9741 224.883C99.8822 224.799 99.8149 224.705 99.7722 224.601C99.728 224.501 99.7069 224.396 99.7089 224.284C99.7166 224.17 99.7395 224.059 99.7777 223.95L98.5305 223.509C98.4349 223.78 98.3953 224.044 98.4115 224.303C98.4319 224.562 98.5076 224.804 98.6388 225.029C98.7644 225.256 98.942 225.461 99.1716 225.645C99.4026 225.825 99.6823 225.973 100.011 226.089C100.335 226.204 100.644 226.264 100.936 226.269C101.231 226.27 101.5 226.223 101.744 226.127C101.983 226.034 102.19 225.891 102.365 225.701C102.544 225.511 102.682 225.282 102.777 225.011Z" fill="black"/>
<path d="M126.005 231.856L126.191 230.352L118.485 229.4L118.299 230.904L121.207 231.263L120.21 239.321L122.061 239.55L123.058 231.492L126.005 231.856Z" fill="black"/>
<path d="M133.683 240.423C134.375 240.433 134.977 240.307 135.488 240.046C135.999 239.784 136.373 239.489 136.612 239.162L135.707 238.156C135.492 238.426 135.213 238.628 134.871 238.759C134.53 238.891 134.178 238.954 133.817 238.949C133.561 238.946 133.326 238.902 133.111 238.82C132.896 238.737 132.706 238.622 132.54 238.474C132.379 238.331 132.252 238.172 132.157 237.999C132.063 237.821 131.987 237.588 131.929 237.3L131.929 237.281L136.784 237.351L136.796 236.57C136.803 236.045 136.738 235.566 136.598 235.131C136.459 234.692 136.253 234.317 135.98 234.004C135.702 233.691 135.362 233.448 134.959 233.274C134.56 233.096 134.103 233.004 133.587 232.996C133.089 232.989 132.626 233.073 132.2 233.247C131.775 233.422 131.405 233.671 131.091 233.992C130.778 234.314 130.532 234.701 130.353 235.153C130.175 235.601 130.081 236.098 130.073 236.645L130.069 236.909C130.062 237.39 130.142 237.844 130.307 238.27C130.478 238.691 130.721 239.059 131.039 239.372C131.356 239.69 131.738 239.943 132.185 240.13C132.632 240.317 133.131 240.415 133.683 240.423ZM133.552 234.485C133.785 234.488 133.99 234.529 134.165 234.606C134.345 234.679 134.496 234.779 134.617 234.904C134.739 235.034 134.834 235.185 134.902 235.358C134.97 235.531 135.002 235.715 134.999 235.909L134.997 236.054L131.981 236.011C132.029 235.777 132.098 235.567 132.189 235.378C132.28 235.19 132.393 235.028 132.527 234.893C132.657 234.759 132.808 234.657 132.981 234.589C133.154 234.517 133.344 234.482 133.552 234.485Z" fill="black"/>
<path d="M145.231 234.894L143.481 232.812L141.512 232.998L144.224 236.272L142.089 240.135L144.071 239.948L145.479 237.463L147.338 239.64L149.314 239.454L146.496 236.058L148.558 232.334L146.589 232.52L145.231 234.894Z" fill="black"/>
<path d="M160.669 237.391L159.232 230.377L157.424 230.748L158.006 233.587L155.388 234.124L154.806 231.285L152.998 231.656L154.435 238.67L156.243 238.299L155.685 235.576L158.303 235.039L158.861 237.762L160.669 237.391Z" fill="black"/>
<path d="M168.47 227.716L167.301 232.887L165.906 228.54L164.155 229.102L166.343 235.919L168.093 235.357L169.262 230.186L170.657 234.533L172.408 233.971L170.221 227.154L168.47 227.716Z" fill="black"/>
<path d="M179.53 228.228L182.348 229.906L184.572 228.915L180.47 226.679L181.467 222.461L179.352 223.403L178.708 226.689L177.838 227.077L176.724 224.575L175.044 225.324L177.956 231.864L179.635 231.115L178.546 228.667L179.53 228.228Z" fill="black"/>
<path d="M191.467 228.509C191.787 228.323 192.033 228.108 192.203 227.866C192.377 227.622 192.501 227.374 192.573 227.122C192.646 226.87 192.683 226.622 192.683 226.377C192.687 226.129 192.678 225.907 192.655 225.711L191.652 216.77L189.897 217.792L190.603 222.251L190.728 223.006L190.19 222.477L186.662 219.678L184.925 220.691L190.991 225.088L191.022 225.982C191.025 226.092 191.022 226.18 191.015 226.246C191.011 226.31 191.001 226.407 190.986 226.539C190.971 226.67 190.936 226.803 190.881 226.937C190.832 227.072 190.745 227.177 190.619 227.25C190.558 227.286 190.474 227.33 190.367 227.382C190.266 227.436 190.182 227.482 190.118 227.519L190.629 228.845C190.788 228.803 190.929 228.759 191.051 228.714C191.176 228.666 191.315 228.598 191.467 228.509Z" fill="black"/>
<path d="M200.624 216.554L196.875 213.146L195.034 214.506L199.284 220.266L200.593 219.299L198.284 216.169L201.423 218.686L202.419 217.951L200.907 214.108L203.276 217.318L204.585 216.351L200.335 210.591L198.483 211.959L200.624 216.554Z" fill="black"/>
<path d="M219.933 197.158L218.71 198.558C218.918 198.763 219.074 198.963 219.177 199.16C219.281 199.356 219.338 199.549 219.348 199.739C219.357 199.929 219.322 200.118 219.24 200.304C219.159 200.491 219.039 200.676 218.879 200.859C218.76 200.995 218.636 201.106 218.508 201.193C218.379 201.274 218.242 201.33 218.097 201.362C217.965 201.393 217.825 201.402 217.677 201.39C217.533 201.375 217.382 201.34 217.225 201.285C216.998 201.203 216.756 201.08 216.502 200.916C216.246 200.746 215.974 200.534 215.685 200.282L214.699 199.42C214.487 199.234 214.298 199.052 214.133 198.872C213.964 198.69 213.822 198.51 213.707 198.333C213.561 198.106 213.455 197.881 213.39 197.661C213.325 197.434 213.312 197.217 213.351 197.011C213.374 196.891 213.415 196.774 213.473 196.661C213.534 196.544 213.612 196.431 213.708 196.321C213.888 196.115 214.07 195.964 214.254 195.867C214.437 195.764 214.626 195.709 214.819 195.702C215.013 195.702 215.213 195.748 215.419 195.84C215.628 195.929 215.847 196.061 216.074 196.237L217.293 194.841C216.885 194.544 216.475 194.326 216.063 194.188C215.65 194.05 215.244 193.999 214.843 194.036C214.442 194.072 214.049 194.197 213.664 194.411C213.281 194.621 212.915 194.926 212.567 195.325C212.332 195.594 212.146 195.877 212.01 196.174C211.873 196.464 211.783 196.763 211.738 197.069C211.695 197.419 211.707 197.774 211.772 198.136C211.837 198.497 211.961 198.852 212.143 199.199C212.288 199.489 212.473 199.774 212.698 200.052C212.92 200.328 213.177 200.594 213.469 200.849L214.445 201.702C214.757 201.975 215.074 202.209 215.397 202.402C215.722 202.593 216.043 202.742 216.36 202.849C216.679 202.952 216.998 203.016 217.315 203.042C217.635 203.064 217.945 203.042 218.243 202.975C218.567 202.9 218.878 202.771 219.178 202.588C219.478 202.399 219.759 202.155 220.02 201.856C220.351 201.477 220.598 201.083 220.761 200.675C220.921 200.264 220.996 199.856 220.988 199.45C220.979 199.044 220.887 198.647 220.711 198.259C220.537 197.867 220.278 197.5 219.933 197.158Z" fill="black"/>
<path d="M225.637 194.736L227.603 191.92C227.868 191.541 228.069 191.18 228.205 190.839C228.34 190.492 228.407 190.168 228.408 189.867C228.412 189.569 228.346 189.294 228.209 189.042C228.075 188.787 227.869 188.562 227.591 188.368C227.435 188.259 227.268 188.183 227.089 188.139C226.91 188.095 226.725 188.086 226.534 188.114C226.349 188.147 226.162 188.212 225.97 188.309C225.774 188.404 225.581 188.538 225.39 188.712L225.334 188.769C225.387 188.586 225.419 188.412 225.432 188.248C225.443 188.078 225.436 187.923 225.411 187.781C225.377 187.591 225.311 187.419 225.214 187.265C225.117 187.111 224.991 186.98 224.836 186.871C224.561 186.679 224.28 186.569 223.993 186.541C223.709 186.509 223.424 186.552 223.137 186.669C222.852 186.793 222.57 186.986 222.29 187.248C222.009 187.504 221.736 187.822 221.471 188.201L219.77 190.637L225.637 194.736ZM224.245 191.52L225.158 190.212C225.271 190.049 225.384 189.923 225.494 189.834C225.608 189.741 225.719 189.681 225.829 189.655C225.928 189.628 226.026 189.627 226.122 189.651C226.215 189.672 226.306 189.715 226.397 189.778C226.498 189.849 226.575 189.927 226.628 190.012C226.681 190.098 226.71 190.196 226.714 190.306C226.716 190.41 226.693 190.528 226.644 190.661C226.591 190.79 226.511 190.931 226.405 191.083L225.492 192.391L224.245 191.52ZM223.22 190.804L222.032 189.974L222.68 189.046C222.804 188.869 222.924 188.727 223.042 188.621C223.162 188.511 223.277 188.438 223.388 188.402C223.486 188.369 223.585 188.363 223.684 188.383C223.779 188.401 223.877 188.445 223.978 188.516C224.068 188.579 224.135 188.653 224.179 188.737C224.225 188.817 224.246 188.91 224.242 189.016C224.239 189.121 224.211 189.238 224.158 189.368C224.105 189.498 224.027 189.64 223.925 189.794L223.22 190.804Z" fill="black"/>
<path d="M229.174 175.485L227.477 178.584C227.25 178.998 227.099 179.398 227.023 179.785C226.949 180.167 226.943 180.523 227.003 180.853C227.064 181.183 227.188 181.48 227.376 181.743C227.561 182.001 227.805 182.213 228.106 182.378C228.489 182.588 228.889 182.671 229.305 182.627C229.721 182.584 230.111 182.423 230.475 182.144L232.183 184.891L233.086 183.243L231.567 180.796L232.368 179.334L234.567 180.538L235.451 178.925L229.174 175.485ZM229.037 180.79C228.936 180.735 228.849 180.66 228.776 180.564C228.698 180.466 228.643 180.353 228.608 180.223C228.577 180.096 228.572 179.954 228.591 179.799C228.613 179.64 228.673 179.471 228.77 179.293L229.584 177.808L231.231 178.71L230.392 180.243C230.299 180.413 230.195 180.547 230.081 180.646C229.963 180.742 229.843 180.809 229.721 180.848C229.599 180.887 229.478 180.901 229.358 180.891C229.241 180.877 229.133 180.843 229.037 180.79Z" fill="black"/>
<path d="M235.957 173.005C236.32 173.155 236.668 173.197 237.001 173.129C237.334 173.062 237.644 172.921 237.929 172.704C238.216 172.494 238.475 172.227 238.705 171.902C238.937 171.573 239.13 171.223 239.283 170.852C239.471 170.399 239.598 169.965 239.665 169.549C239.735 169.129 239.741 168.745 239.685 168.396C239.628 168.048 239.51 167.746 239.33 167.49C239.147 167.228 238.899 167.032 238.585 166.902C238.361 166.809 238.141 166.766 237.924 166.771C237.708 166.773 237.5 166.82 237.299 166.914C237.161 166.981 237.027 167.068 236.897 167.177C236.768 167.281 236.642 167.405 236.52 167.55C236.52 167.388 236.51 167.234 236.49 167.087C236.466 166.938 236.431 166.802 236.387 166.679C236.315 166.472 236.212 166.294 236.079 166.143C235.946 165.992 235.787 165.879 235.604 165.803C235.29 165.673 234.983 165.631 234.682 165.679C234.382 165.722 234.097 165.84 233.826 166.033C233.558 166.232 233.306 166.5 233.071 166.837C232.831 167.173 232.619 167.565 232.433 168.013C232.268 168.412 232.159 168.809 232.105 169.202C232.048 169.594 232.051 169.956 232.114 170.288C232.179 170.625 232.306 170.924 232.495 171.183C232.681 171.437 232.931 171.629 233.244 171.759L233.946 170.065C233.832 170.018 233.743 169.943 233.681 169.841C233.618 169.739 233.579 169.615 233.563 169.47C233.549 169.33 233.558 169.176 233.589 169.008C233.622 168.835 233.677 168.657 233.753 168.474C233.844 168.254 233.944 168.076 234.053 167.939C234.164 167.799 234.275 167.692 234.386 167.619C234.5 167.552 234.613 167.515 234.726 167.509C234.834 167.501 234.935 167.517 235.028 167.556C235.122 167.594 235.202 167.649 235.268 167.72C235.335 167.79 235.384 167.877 235.417 167.982C235.439 168.058 235.451 168.144 235.454 168.24C235.452 168.335 235.442 168.441 235.423 168.557C235.404 168.635 235.382 168.719 235.354 168.808C235.327 168.897 235.293 168.991 235.253 169.088L234.736 170.336L235.866 170.804L236.383 169.557C236.427 169.451 236.472 169.353 236.519 169.262C236.568 169.168 236.615 169.082 236.661 169.006C236.742 168.882 236.826 168.781 236.916 168.703C237.003 168.62 237.094 168.56 237.191 168.523C237.275 168.492 237.366 168.479 237.464 168.486C237.563 168.489 237.665 168.512 237.771 168.556C237.877 168.6 237.967 168.671 238.041 168.768C238.117 168.862 238.171 168.98 238.203 169.122C238.233 169.268 238.237 169.437 238.215 169.628C238.191 169.814 238.132 170.019 238.039 170.243C237.948 170.463 237.844 170.652 237.726 170.808C237.609 170.965 237.489 171.087 237.367 171.175C237.244 171.263 237.123 171.32 237.002 171.346C236.879 171.367 236.765 171.355 236.659 171.311L235.957 173.005Z" fill="black"/>
<path d="M236.732 156.007L240.357 159.873L235.977 158.592L235.461 160.358L242.33 162.366L242.846 160.6L239.221 156.734L243.602 158.015L244.118 156.249L237.248 154.241L236.732 156.007Z" fill="black"/>
<path d="M29.4794 100.804L28.945 102.585C28.6611 102.518 28.4086 102.493 28.1872 102.509C27.9659 102.526 27.7722 102.581 27.6062 102.674C27.4402 102.766 27.2997 102.897 27.1848 103.065C27.0699 103.233 26.9776 103.434 26.9078 103.666C26.8559 103.839 26.8273 104.003 26.8222 104.159C26.8226 104.311 26.8479 104.456 26.8982 104.596C26.9425 104.724 27.009 104.848 27.0977 104.967C27.1876 105.081 27.2976 105.19 27.4277 105.294C27.6177 105.443 27.85 105.582 28.1245 105.71C28.4046 105.836 28.7283 105.954 29.0957 106.064L30.3501 106.44C30.6204 106.521 30.8755 106.584 31.1154 106.629C31.3596 106.674 31.587 106.699 31.7978 106.702C32.0685 106.705 32.3146 106.675 32.5359 106.613C32.7627 106.547 32.9528 106.443 33.1062 106.3C33.1957 106.216 33.273 106.12 33.3381 106.011C33.4044 105.897 33.4585 105.77 33.5004 105.631C33.579 105.369 33.6103 105.134 33.5943 104.927C33.5837 104.716 33.5299 104.527 33.4328 104.36C33.3302 104.196 33.1849 104.051 32.997 103.925C32.8103 103.796 32.5823 103.681 32.3128 103.582L32.8453 101.807C33.3141 101.994 33.7166 102.225 34.0528 102.501C34.3889 102.777 34.6482 103.094 34.8306 103.453C35.013 103.812 35.1164 104.211 35.1408 104.652C35.1665 105.088 35.1033 105.559 34.9511 106.066C34.8484 106.409 34.7077 106.716 34.529 106.99C34.3558 107.26 34.1515 107.496 33.9162 107.697C33.6425 107.919 33.3354 108.099 32.9949 108.236C32.6545 108.373 32.2887 108.457 31.8975 108.487C31.5748 108.519 31.2357 108.514 30.88 108.472C30.5286 108.431 30.1671 108.354 29.7954 108.243L28.5537 107.87C28.1567 107.751 27.7903 107.607 27.4545 107.437C27.12 107.263 26.8234 107.07 26.5645 106.859C26.3069 106.643 26.0829 106.408 25.8924 106.153C25.7032 105.893 25.5576 105.619 25.4554 105.331C25.3469 105.017 25.2902 104.684 25.2852 104.333C25.2856 103.978 25.343 103.611 25.4571 103.231C25.6016 102.749 25.8032 102.33 26.0617 101.975C26.3245 101.621 26.6299 101.34 26.978 101.131C27.3261 100.922 27.7113 100.789 28.1337 100.731C28.5574 100.67 29.0059 100.694 29.4794 100.804Z" fill="black"/>
<path d="M28.493 94.6845L29.83 91.5211C30.0104 91.0944 30.2087 90.7328 30.425 90.4363C30.647 90.1374 30.8853 89.9077 31.1399 89.7471C31.3904 89.5848 31.6584 89.4946 31.9438 89.4763C32.2309 89.454 32.5308 89.509 32.8435 89.6412C33.0182 89.7151 33.1718 89.816 33.3044 89.9439C33.4371 90.0718 33.5426 90.2242 33.6211 90.4011C33.6914 90.5745 33.7363 90.7684 33.7559 90.9826C33.7795 91.1985 33.7688 91.4335 33.7237 91.6874L33.705 91.7657C33.8322 91.6232 33.9619 91.5032 34.0941 91.4058C34.232 91.306 34.3674 91.2292 34.5003 91.1752C34.6795 91.1025 34.8599 91.0662 35.0418 91.0665C35.2236 91.0667 35.4018 91.1038 35.5764 91.1776C35.8851 91.3081 36.1277 91.4874 36.3043 91.7153C36.4826 91.9391 36.5982 92.2036 36.6512 92.5086C36.6984 92.8159 36.6856 93.1578 36.6127 93.5341C36.5456 93.908 36.4219 94.3084 36.2416 94.735L35.0848 97.4718L28.493 94.6845ZM31.9568 94.1518L32.5777 92.6829C32.6549 92.5 32.7019 92.3379 32.7186 92.1964C32.737 92.051 32.728 91.925 32.6916 91.8186C32.6616 91.7197 32.6108 91.636 32.5393 91.5674C32.4718 91.5005 32.3873 91.4456 32.2857 91.4027C32.172 91.3546 32.0648 91.3308 31.964 91.3313C31.8633 91.3318 31.7653 91.3599 31.67 91.4154C31.5805 91.4685 31.4929 91.5512 31.4071 91.6635C31.3255 91.7774 31.2486 91.9197 31.1764 92.0904L30.5555 93.5593L31.9568 94.1518ZM33.1082 94.6387L34.4424 95.2029L34.883 94.1606C34.9671 93.9615 35.023 93.7839 35.0506 93.628C35.08 93.4679 35.0802 93.3315 35.0513 93.2187C35.027 93.1175 34.98 93.0305 34.9102 92.9579C34.8444 92.887 34.7547 92.8274 34.6409 92.7794C34.5394 92.7364 34.4415 92.719 34.3471 92.727C34.2545 92.7309 34.1646 92.7624 34.0774 92.8213C33.9903 92.8802 33.9059 92.9667 33.8242 93.0806C33.7425 93.1946 33.6636 93.336 33.5874 93.505L33.1082 94.6387Z" fill="black"/>
<path d="M42.9045 81.444L41.1848 84.5309C40.9551 84.9432 40.697 85.2842 40.4105 85.5538C40.1262 85.8196 39.8282 86.0146 39.5167 86.1389C39.2051 86.2633 38.8879 86.3162 38.565 86.2978C38.248 86.2778 37.9393 86.184 37.6389 86.0165C37.2576 85.804 36.9747 85.5099 36.7901 85.1343C36.6056 84.7588 36.5345 84.3428 36.5766 83.8866L33.3424 83.902L34.257 82.2603L37.1359 82.2438L37.9475 80.787L35.7577 79.5664L36.6529 77.9594L42.9045 81.444ZM38.4879 84.3837C38.5881 84.4395 38.6981 84.4731 38.818 84.4844C38.9418 84.4978 39.0677 84.4847 39.1959 84.445C39.3201 84.4031 39.4427 84.3326 39.5636 84.2333C39.6867 84.1302 39.7976 83.99 39.8964 83.8127L40.7208 82.3328L39.0799 81.4182L38.2297 82.9443C38.1353 83.1139 38.0768 83.2732 38.0543 83.4223C38.0357 83.5736 38.0424 83.7111 38.0743 83.835C38.1063 83.9588 38.1586 84.0688 38.2313 84.1649C38.3061 84.2571 38.3916 84.33 38.4879 84.3837Z" fill="black"/>
<path d="M41.3941 74.3798C41.074 74.1527 40.8537 73.8802 40.7332 73.5621C40.6127 73.2441 40.568 72.9068 40.5991 72.5503C40.6241 72.1948 40.7128 71.8332 40.8654 71.4655C41.0205 71.0941 41.2141 70.7447 41.4462 70.4172C41.7294 70.0177 42.0292 69.6787 42.3456 69.4002C42.6645 69.118 42.9863 68.9081 43.3108 68.7706C43.6353 68.633 43.954 68.5724 44.2667 68.5887C44.5857 68.604 44.8836 68.7099 45.1605 68.9063C45.3584 69.0466 45.5127 69.2102 45.6236 69.397C45.7369 69.5802 45.8076 69.7817 45.8355 70.0016C45.8519 70.1539 45.8491 70.3142 45.8271 70.4824C45.8077 70.6471 45.769 70.8198 45.7112 71.0006C45.8483 70.9139 45.9844 70.8401 46.1195 70.7791C46.2583 70.7207 46.3916 70.6774 46.5197 70.6492C46.7328 70.6003 46.9386 70.5921 47.1371 70.6247C47.3356 70.6573 47.5158 70.7311 47.6776 70.8459C47.9546 71.0423 48.1533 71.2806 48.2736 71.5607C48.3966 71.8372 48.4483 72.1416 48.4289 72.474C48.4034 72.8074 48.3105 73.1634 48.1503 73.5419C47.9937 73.923 47.7751 74.3115 47.4945 74.7074C47.2445 75.0601 46.9671 75.3636 46.6624 75.6181C46.3614 75.875 46.0537 76.0651 45.7393 76.1883C45.4188 76.3125 45.0986 76.3639 44.7787 76.3424C44.4649 76.32 44.1695 76.2105 43.8925 76.014L44.9525 74.5187C45.0532 74.5902 45.1635 74.6251 45.2835 74.6237C45.4034 74.6222 45.5292 74.5897 45.6607 74.5262C45.7861 74.4637 45.9116 74.3743 46.0374 74.2579C46.1656 74.138 46.2872 73.997 46.402 73.8351C46.5397 73.6408 46.6373 73.4612 46.6947 73.2963C46.7546 73.1279 46.7859 72.977 46.7885 72.8437C46.785 72.7114 46.7559 72.5961 46.7012 72.4978C46.6501 72.4021 46.5832 72.3249 46.5005 72.2662C46.4178 72.2076 46.329 72.1689 46.2341 72.1503C46.1392 72.1316 46.0387 72.1361 45.9327 72.1636C45.8574 72.186 45.7781 72.2216 45.6947 72.2706C45.6149 72.3222 45.531 72.3871 45.4431 72.4654C45.3864 72.5225 45.3277 72.5863 45.2669 72.6568C45.2061 72.7273 45.1451 72.8057 45.0839 72.8921L44.3033 73.9933L43.3051 73.2853L44.0858 72.184C44.1521 72.0905 44.211 71.9998 44.2625 71.9119C44.3165 71.8204 44.3637 71.7348 44.4039 71.6552C44.4665 71.5211 44.5068 71.3956 44.5249 71.2786C44.5491 71.1606 44.551 71.0511 44.5307 70.9501C44.5125 70.8615 44.4745 70.7778 44.4168 70.699C44.3617 70.6166 44.2874 70.5423 44.1939 70.4759C44.1003 70.4096 43.9926 70.371 43.8705 70.3602C43.751 70.3457 43.6227 70.3628 43.4855 70.4115C43.3457 70.4638 43.2006 70.5502 43.0503 70.6708C42.9062 70.7903 42.7639 70.949 42.6236 71.1469C42.4859 71.3412 42.3819 71.5298 42.3118 71.7126C42.2417 71.8955 42.202 72.062 42.1927 72.2123C42.1835 72.3626 42.1998 72.4959 42.2418 72.6121C42.2898 72.7274 42.3606 72.8181 42.4541 72.8845L41.3941 74.3798Z" fill="black"/>
<path d="M55.3684 64.6771L50.1672 63.6645L53.5825 66.6928L52.3626 68.0696L47.0071 63.3209L48.227 61.9441L53.4281 62.9567L50.0129 59.9285L51.2327 58.5517L56.5882 63.3003L55.3684 64.6771Z" fill="black"/>
<path d="M69.2 47.9141L68.7411 43.3555L70.4853 42.0866L71.0091 47.8824L76.0577 49.9445L74.3189 51.2095L69.7872 49.2622L69.4181 49.5308L71.9114 52.9611L70.408 54.0548L64.7446 46.2631L66.248 45.1693L68.574 48.3695L69.2 47.9141Z" fill="black"/>
<path d="M74.3016 36.2968C74.623 36.1125 74.9311 36.0071 75.2259 35.9804C75.5245 35.9516 75.801 35.9685 76.0554 36.0311C76.3098 36.0937 76.5432 36.1861 76.7556 36.3084C76.9717 36.4285 77.1592 36.5473 77.3179 36.6647L84.5591 42.0004L82.7971 43.0105L79.2883 40.1719L78.6979 39.6867L78.8874 40.417L79.5485 44.8729L77.8037 45.8732L77.0261 38.4183L76.2675 37.9457C76.1734 37.8878 76.0959 37.8457 76.0352 37.8196C75.9783 37.7912 75.8891 37.7508 75.7676 37.6984C75.6461 37.646 75.5137 37.6101 75.3704 37.5906C75.2287 37.565 75.0947 37.5885 74.9684 37.6609C74.9072 37.696 74.8271 37.747 74.7282 37.8138C74.6309 37.8747 74.5497 37.9238 74.4847 37.9611L73.5925 36.8558C73.7083 36.7386 73.8163 36.6386 73.9163 36.5558C74.0201 36.4709 74.1485 36.3845 74.3016 36.2968Z" fill="black"/>
<path d="M84.4362 31.0318L86.1214 30.2952L87.4716 33.3876C87.5113 33.2691 87.5586 33.157 87.6135 33.0512C87.6683 32.9454 87.7299 32.8438 87.7981 32.7466C87.9169 32.5888 88.0575 32.4479 88.2199 32.3239C88.3846 32.1942 88.5761 32.0816 88.7943 31.9862C89.2065 31.806 89.6093 31.731 90.0027 31.7612C90.3961 31.7915 90.7672 31.9084 91.116 32.1122C91.459 32.3136 91.7742 32.5947 92.0616 32.9552C92.353 33.3141 92.6029 33.732 92.8111 34.209L92.8667 34.3363C93.0838 34.8335 93.225 35.311 93.2901 35.7687C93.361 36.2288 93.3518 36.654 93.2624 37.0445C93.1713 37.4309 93.0005 37.7728 92.7501 38.07C92.5014 38.3712 92.169 38.6128 91.7528 38.7948C91.5507 38.8831 91.3511 38.9439 91.1538 38.9772C90.9624 39.0127 90.7772 39.0239 90.5982 39.0107C90.4487 38.999 90.302 38.9717 90.1581 38.9287C90.016 38.8897 89.8767 38.8351 89.7401 38.7648L89.9601 39.434L88.4023 40.115L84.4362 31.0318ZM91.1816 35.073L91.126 34.9456C91.0078 34.6748 90.8714 34.4287 90.717 34.2074C90.5644 33.9901 90.3958 33.8134 90.2113 33.6774C90.0268 33.5415 89.8268 33.458 89.6112 33.4271C89.3996 33.3944 89.1746 33.4302 88.9362 33.5344C88.7866 33.5998 88.6574 33.6731 88.5486 33.7544C88.4415 33.8398 88.3538 33.931 88.2855 34.0283C88.215 34.1313 88.1599 34.2421 88.1202 34.3605C88.0845 34.4772 88.0634 34.5996 88.0567 34.7276L89.2534 37.4684C89.3594 37.5568 89.4694 37.6267 89.5832 37.678C89.7011 37.7276 89.8249 37.7577 89.9547 37.7684C90.0688 37.7762 90.1878 37.7676 90.3115 37.7424C90.437 37.7212 90.5685 37.6806 90.7059 37.6205C90.9443 37.5163 91.1243 37.3774 91.2458 37.2039C91.3714 37.0287 91.4508 36.8303 91.484 36.6088C91.5115 36.385 91.4965 36.1412 91.439 35.8775C91.3874 35.616 91.3016 35.3478 91.1816 35.073Z" fill="black"/>
<path d="M100.257 29.2878C99.975 29.3761 99.7593 29.5062 99.6097 29.6778C99.4643 29.8482 99.3686 30.0446 99.3227 30.267C99.2712 30.4865 99.2627 30.725 99.297 30.9823C99.3326 31.2439 99.392 31.5073 99.475 31.7725L99.5342 31.9619C99.6159 32.223 99.716 32.469 99.8345 32.6999C99.9572 32.9296 100.103 33.122 100.272 33.2771C100.436 33.4336 100.627 33.5403 100.843 33.5973C101.06 33.6542 101.307 33.6392 101.585 33.5522C101.774 33.4928 101.938 33.4044 102.077 33.2869C102.217 33.1737 102.327 33.0445 102.406 32.8995C102.486 32.7544 102.531 32.5969 102.542 32.4268C102.554 32.2568 102.529 32.0889 102.468 31.9232L104.122 31.4049C104.257 31.8064 104.303 32.1917 104.262 32.5607C104.221 32.9339 104.109 33.2764 103.925 33.5884C103.735 33.8975 103.481 34.1713 103.163 34.4097C102.845 34.648 102.475 34.8332 102.054 34.9651C101.528 35.1299 101.037 35.1845 100.581 35.1287C100.128 35.0717 99.7189 34.9296 99.3521 34.7025C98.9853 34.4753 98.6687 34.1724 98.4023 33.7936C98.1372 33.419 97.9295 32.9918 97.7793 32.5119L97.7201 32.3224C97.5699 31.8425 97.4963 31.371 97.4992 30.9078C97.5076 30.4475 97.5978 30.0194 97.7696 29.6235C97.9373 29.2289 98.1927 28.8784 98.5358 28.5721C98.8803 28.27 99.3176 28.0359 99.8479 27.8697C100.239 27.7471 100.629 27.692 101.016 27.7047C101.409 27.7202 101.773 27.7959 102.106 27.9317C102.44 28.0675 102.73 28.2632 102.976 28.5189C103.227 28.7732 103.403 29.0785 103.505 29.4347L101.851 29.953C101.81 29.7904 101.735 29.6544 101.627 29.545C101.523 29.4343 101.397 29.3511 101.251 29.2954C101.104 29.2397 100.945 29.211 100.773 29.2093C100.602 29.2075 100.43 29.2337 100.257 29.2878Z" fill="black"/>
<path d="M111.915 27.6805L113.252 24.6843L115.64 24.2121L113.575 28.4044L116.819 31.2771L114.548 31.7263L112.129 29.4122L111.194 29.597L111.725 32.2845L109.921 32.6413L108.534 25.6173L110.338 25.2605L110.857 27.8897L111.915 27.6805Z" fill="black"/>
<path d="M125.633 30.2978L122.556 25.9824L122.951 30.5311L121.119 30.6905L120.5 23.5575L122.332 23.3982L125.409 27.7136L125.014 23.1648L126.846 23.0054L127.465 30.1384L125.633 30.2978Z" fill="black"/>
<path d="M137.07 30.0547L134.479 25.4315L134.379 29.9963L132.54 29.9565L132.697 22.7982L134.535 22.8381L137.127 27.4613L137.227 22.8965L139.065 22.9364L138.909 30.0946L137.07 30.0547ZM137.853 33.0105L136.523 32.9816C136.526 32.867 136.511 32.7541 136.478 32.6431C136.449 32.5366 136.401 32.4428 136.332 32.3619C136.259 32.2765 136.163 32.2082 136.045 32.1571C135.932 32.1061 135.791 32.0788 135.623 32.0752C135.452 32.0715 135.306 32.0926 135.185 32.1385C135.07 32.1845 134.974 32.2486 134.897 32.3308C134.82 32.4086 134.763 32.5 134.725 32.6051C134.692 32.7147 134.674 32.8268 134.672 32.9415L133.349 32.9128C133.355 32.6261 133.412 32.3648 133.518 32.1288C133.629 31.8929 133.786 31.6934 133.988 31.5301C134.186 31.3623 134.425 31.2329 134.704 31.1419C134.984 31.0553 135.298 31.0157 135.646 31.0233C135.99 31.0307 136.3 31.0838 136.576 31.1824C136.852 31.2855 137.087 31.4252 137.281 31.6015C137.472 31.7733 137.615 31.9794 137.711 32.2197C137.812 32.4602 137.859 32.7238 137.853 33.0105Z" fill="black"/>
<path d="M162 34.8253L161.642 36.2978L154.097 34.4624L154.455 32.9899L157.302 33.6825L159.221 25.793L161.034 26.2338L159.115 34.1234L162 34.8253Z" fill="black"/>
<path d="M172.212 29.5287C172.863 29.7642 173.382 30.0947 173.767 30.5203C174.152 30.9459 174.399 31.354 174.506 31.7446L173.304 32.3653C173.198 32.0361 173.008 31.7495 172.736 31.5053C172.463 31.2612 172.156 31.0777 171.816 30.9547C171.576 30.8677 171.341 30.8248 171.11 30.826C170.88 30.8271 170.661 30.8677 170.454 30.9476C170.253 31.0248 170.077 31.1279 169.928 31.2567C169.776 31.3896 169.623 31.5804 169.467 31.8291L169.461 31.8478L174.026 33.4992L173.761 34.2336C173.582 34.7272 173.351 35.1526 173.067 35.5097C172.782 35.8709 172.456 36.1495 172.09 36.3454C171.719 36.5398 171.315 36.6468 170.876 36.6665C170.44 36.6918 169.98 36.6167 169.495 36.4412C169.026 36.2717 168.624 36.0299 168.287 35.7158C167.95 35.4017 167.693 35.0387 167.513 34.6267C167.334 34.2147 167.241 33.7658 167.234 33.2799C167.225 32.7983 167.314 32.3002 167.5 31.7858L167.59 31.5369C167.753 31.0847 167.988 30.6887 168.294 30.3489C168.602 30.0148 168.96 29.7572 169.368 29.5763C169.777 29.3913 170.224 29.2902 170.708 29.2731C171.193 29.256 171.694 29.3412 172.212 29.5287ZM169.989 35.0365C170.208 35.116 170.414 35.1505 170.605 35.14C170.799 35.1351 170.975 35.0956 171.134 35.0214C171.293 34.9431 171.435 34.835 171.56 34.6972C171.685 34.5594 171.781 34.3993 171.847 34.2167L171.896 34.0798L169.06 33.0538C169.022 33.2887 169.012 33.5103 169.03 33.7187C169.049 33.9271 169.097 34.1181 169.175 34.2917C169.249 34.4639 169.354 34.6123 169.492 34.7372C169.628 34.8663 169.794 34.966 169.989 35.0365Z" fill="black"/>
<path d="M181.057 38.7856L178.684 40.1134L176.908 39.2432L180.603 37.1409L179.973 32.7721L181.761 33.6481L182.198 36.4707L184.707 35.0915L186.489 35.9645L182.653 38.1449L183.263 42.3571L181.487 41.4869L181.057 38.7856Z" fill="black"/>
<path d="M196.38 41.9118L192.554 47.9637L190.994 46.9771L192.543 44.5273L190.285 43.0987L188.736 45.5485L187.176 44.562L191.002 38.5101L192.562 39.4967L191.077 41.8458L193.335 43.2744L194.82 40.9252L196.38 41.9118Z" fill="black"/>
<path d="M200.253 53.7201L200.99 48.4704L198.147 52.043L196.708 50.8975L201.166 45.2952L202.605 46.4407L201.868 51.6904L204.711 48.1178L206.149 49.2633L201.692 54.8656L200.253 53.7201Z" fill="black"/>
<path d="M210.779 57.1544L214.009 56.5821L215.738 58.2958L211.11 58.9356L210.55 63.2338L208.905 61.6039L209.466 58.3024L208.789 57.6319L206.862 59.5783L205.555 58.2837L210.593 53.1967L211.899 54.4913L210.013 56.3954L210.779 57.1544Z" fill="black"/>
<path d="M222.044 61.114C222.277 61.4018 222.431 61.689 222.504 61.9758C222.58 62.266 222.608 62.5418 222.587 62.8031C222.566 63.0643 222.513 63.3096 222.426 63.539C222.342 63.7718 222.255 63.976 222.165 64.1516L218.062 72.1599L216.783 70.5825L219.021 66.6613L219.405 66.0003L218.714 66.3048L214.424 67.6744L213.157 66.1124L220.388 64.1455L220.732 63.3204C220.774 63.2182 220.803 63.1349 220.819 63.0708C220.838 63.01 220.864 62.9154 220.896 62.787C220.928 62.6587 220.942 62.5221 220.939 62.3775C220.941 62.2335 220.897 62.1049 220.805 61.9919C220.76 61.9371 220.697 61.8662 220.615 61.7793C220.54 61.693 220.478 61.6208 220.431 61.5625L221.378 60.5038C221.513 60.5993 221.629 60.6898 221.726 60.7752C221.827 60.8641 221.933 60.977 222.044 61.114Z" fill="black"/>
<path d="M226.377 75.5351L221.665 77.3969L220.424 75.4735L226.438 71.5896L227.32 72.9571L224.052 75.0678L227.88 73.8244L228.55 74.8639L225.777 77.9234L229.128 75.7589L230.01 77.1265L223.997 81.0104L222.749 79.0758L226.377 75.5351Z" fill="black"/>
<path d="M237.574 100.508L236.926 98.7656C237.193 98.6474 237.409 98.515 237.576 98.3682C237.742 98.2214 237.864 98.0609 237.94 97.8865C238.016 97.7122 238.05 97.5233 238.04 97.3198C238.03 97.1164 237.983 96.9009 237.898 96.6736C237.835 96.5041 237.759 96.356 237.669 96.2293C237.577 96.1082 237.469 96.0073 237.345 95.9265C237.232 95.8508 237.104 95.7925 236.962 95.7513C236.821 95.7144 236.668 95.6939 236.502 95.6899C236.26 95.6857 235.991 95.7153 235.695 95.7787C235.396 95.8477 235.066 95.9492 234.707 96.0832L233.479 96.5404C233.215 96.639 232.974 96.743 232.756 96.8525C232.533 96.9635 232.337 97.0813 232.167 97.2059C231.949 97.367 231.771 97.5393 231.632 97.7228C231.491 97.912 231.402 98.1098 231.366 98.3162C231.345 98.437 231.342 98.5607 231.356 98.6872C231.372 98.8179 231.405 98.9514 231.456 99.0878C231.551 99.3441 231.668 99.5502 231.806 99.7059C231.941 99.8673 232.098 99.9854 232.276 100.06C232.457 100.129 232.66 100.157 232.886 100.144C233.113 100.134 233.364 100.088 233.639 100.004L234.285 101.741C233.798 101.875 233.338 101.933 232.903 101.916C232.469 101.899 232.071 101.803 231.709 101.627C231.347 101.451 231.023 101.195 230.738 100.859C230.455 100.527 230.221 100.113 230.036 99.6167C229.911 99.2818 229.838 98.9515 229.815 98.6256C229.79 98.3054 229.811 97.9941 229.877 97.6917C229.962 97.3496 230.098 97.021 230.287 96.7059C230.476 96.3909 230.717 96.1033 231.011 95.8432C231.249 95.6228 231.522 95.422 231.831 95.241C232.136 95.0615 232.471 94.904 232.834 94.7685L234.049 94.3158C234.438 94.1711 234.817 94.0651 235.187 93.9977C235.559 93.9346 235.912 93.909 236.246 93.9211C236.581 93.9374 236.902 93.9897 237.208 94.0782C237.515 94.1708 237.797 94.3013 238.052 94.4697C238.328 94.6541 238.574 94.885 238.79 95.1622C239.003 95.4451 239.179 95.7726 239.318 96.1447C239.493 96.616 239.585 97.0713 239.593 97.5107C239.597 97.9517 239.523 98.3605 239.372 98.737C239.22 99.1136 238.993 99.4523 238.691 99.7532C238.39 100.058 238.018 100.31 237.574 100.508Z" fill="black"/>
<path d="M242.053 104.791L242.895 108.12C243.009 108.569 243.069 108.977 243.075 109.344C243.078 109.716 243.027 110.043 242.921 110.325C242.819 110.606 242.66 110.839 242.443 111.026C242.228 111.217 241.955 111.355 241.626 111.438C241.442 111.485 241.259 111.497 241.076 111.475C240.893 111.453 240.717 111.395 240.548 111.302C240.387 111.206 240.234 111.079 240.089 110.92C239.94 110.762 239.807 110.568 239.69 110.338L239.657 110.265C239.642 110.455 239.611 110.629 239.564 110.786C239.515 110.949 239.453 111.092 239.379 111.216C239.28 111.382 239.158 111.52 239.013 111.629C238.868 111.739 238.704 111.817 238.52 111.863C238.195 111.946 237.893 111.949 237.615 111.874C237.338 111.803 237.086 111.662 236.86 111.451C236.637 111.235 236.441 110.955 236.272 110.611C236.1 110.272 235.957 109.878 235.843 109.429L235.115 106.549L242.053 104.791ZM239.612 107.307L240.003 108.853C240.052 109.045 240.112 109.203 240.184 109.326C240.257 109.453 240.34 109.548 240.434 109.611C240.517 109.671 240.608 109.707 240.707 109.719C240.801 109.731 240.901 109.724 241.008 109.697C241.128 109.667 241.228 109.621 241.308 109.56C241.388 109.498 241.449 109.417 241.492 109.315C241.531 109.219 241.551 109.1 241.552 108.959C241.548 108.819 241.523 108.659 241.478 108.479L241.087 106.933L239.612 107.307ZM238.4 107.614L236.996 107.97L237.273 109.067C237.326 109.276 237.389 109.452 237.461 109.593C237.534 109.738 237.616 109.847 237.707 109.919C237.788 109.985 237.878 110.026 237.977 110.042C238.072 110.059 238.18 110.052 238.3 110.022C238.406 109.995 238.495 109.949 238.565 109.886C238.637 109.827 238.69 109.748 238.724 109.648C238.758 109.548 238.773 109.429 238.769 109.288C238.765 109.148 238.743 108.988 238.702 108.807L238.4 107.614Z" fill="black"/>
<path d="M238.549 124.048L238.058 120.549C237.992 120.081 237.992 119.653 238.058 119.266C238.124 118.882 238.244 118.547 238.418 118.259C238.591 117.972 238.812 117.738 239.081 117.558C239.346 117.383 239.648 117.271 239.989 117.223C240.421 117.162 240.824 117.226 241.198 117.414C241.572 117.602 241.879 117.891 242.121 118.28L244.691 116.315L244.952 118.176L242.666 119.927L242.898 121.578L245.381 121.229L245.636 123.051L238.549 124.048ZM240.297 119.038C240.183 119.053 240.075 119.093 239.973 119.157C239.866 119.221 239.774 119.307 239.696 119.416C239.622 119.525 239.567 119.655 239.53 119.807C239.494 119.963 239.49 120.142 239.518 120.343L239.754 122.021L241.614 121.759L241.371 120.029C241.344 119.837 241.295 119.675 241.223 119.542C241.146 119.41 241.058 119.305 240.958 119.225C240.858 119.146 240.75 119.09 240.634 119.057C240.518 119.029 240.406 119.022 240.297 119.038Z" fill="black"/>
<path d="M244.015 128.767C244.407 128.755 244.747 128.839 245.035 129.02C245.323 129.201 245.563 129.443 245.753 129.746C245.947 130.044 246.095 130.386 246.195 130.771C246.295 131.161 246.352 131.557 246.364 131.958C246.379 132.447 246.345 132.898 246.261 133.312C246.177 133.729 246.047 134.091 245.871 134.396C245.695 134.702 245.477 134.943 245.218 135.118C244.955 135.299 244.653 135.394 244.314 135.405C244.071 135.413 243.85 135.375 243.649 135.293C243.448 135.216 243.27 135.098 243.115 134.939C243.01 134.828 242.915 134.698 242.831 134.551C242.748 134.408 242.674 134.247 242.611 134.068C242.554 134.22 242.49 134.361 242.419 134.491C242.344 134.621 242.264 134.736 242.178 134.836C242.038 135.004 241.879 135.135 241.701 135.229C241.523 135.322 241.335 135.372 241.136 135.379C240.797 135.389 240.495 135.319 240.23 135.169C239.965 135.022 239.74 134.811 239.555 134.534C239.374 134.253 239.234 133.913 239.133 133.515C239.028 133.116 238.968 132.675 238.953 132.19C238.939 131.757 238.977 131.348 239.067 130.961C239.152 130.575 239.283 130.237 239.459 129.949C239.64 129.657 239.864 129.422 240.132 129.246C240.396 129.075 240.697 128.984 241.037 128.973L241.094 130.805C240.97 130.809 240.861 130.848 240.766 130.921C240.672 130.995 240.591 131.097 240.524 131.227C240.462 131.352 240.416 131.499 240.386 131.668C240.356 131.841 240.344 132.027 240.35 132.225C240.358 132.463 240.388 132.666 240.442 132.832C240.496 133.002 240.562 133.141 240.64 133.249C240.723 133.352 240.816 133.427 240.918 133.472C241.017 133.518 241.117 133.539 241.218 133.536C241.32 133.532 241.414 133.51 241.501 133.467C241.588 133.425 241.665 133.36 241.733 133.274C241.779 133.211 241.821 133.135 241.858 133.045C241.891 132.956 241.918 132.854 241.941 132.738C241.952 132.659 241.96 132.572 241.966 132.479C241.972 132.386 241.974 132.287 241.97 132.181L241.928 130.832L243.151 130.794L243.193 132.143C243.197 132.258 243.205 132.366 243.217 132.467C243.229 132.572 243.243 132.669 243.259 132.757C243.29 132.901 243.333 133.026 243.389 133.13C243.441 133.239 243.506 133.327 243.583 133.395C243.651 133.455 243.732 133.499 243.825 133.527C243.919 133.559 244.023 133.574 244.138 133.57C244.252 133.566 244.362 133.532 244.465 133.467C244.569 133.406 244.661 133.315 244.741 133.194C244.821 133.068 244.885 132.911 244.932 132.724C244.975 132.542 244.993 132.329 244.985 132.087C244.978 131.849 244.947 131.636 244.892 131.448C244.838 131.26 244.769 131.103 244.686 130.977C244.603 130.852 244.509 130.756 244.406 130.688C244.298 130.625 244.187 130.596 244.072 130.599L244.015 128.767Z" fill="black"/>
<path d="M238.725 144.94L243.484 142.607L238.933 142.255L239.075 140.421L246.211 140.973L246.069 142.807L241.31 145.14L245.861 145.492L245.719 147.326L238.583 146.774L238.725 144.94Z" fill="black"/>
</svg>
