<svg width="24" height="25" viewBox="0 0 24 25" fill="none" xmlns="http://www.w3.org/2000/svg">
<path fill-rule="evenodd" clip-rule="evenodd" d="M16 9.89041C16 12.0996 14.2091 13.8904 12 13.8904C9.79086 13.8904 8 12.0996 8 9.89041C8 7.68127 9.79086 5.89041 12 5.89041C14.2091 5.89041 16 7.68127 16 9.89041ZM14 9.89041C14 10.995 13.1046 11.8904 12 11.8904C10.8954 11.8904 10 10.995 10 9.89041C10 8.78584 10.8954 7.89041 12 7.89041C13.1046 7.89041 14 8.78584 14 9.89041Z" fill="#6622E0"/>
<path fill-rule="evenodd" clip-rule="evenodd" d="M12 1.89041C5.92487 1.89041 1 6.81528 1 12.8904C1 18.9655 5.92487 23.8904 12 23.8904C18.0751 23.8904 23 18.9655 23 12.8904C23 6.81528 18.0751 1.89041 12 1.89041ZM3 12.8904C3 14.9806 3.71255 16.9044 4.90798 18.4321C6.55245 16.2793 9.14627 14.8904 12.0645 14.8904C14.9448 14.8904 17.5092 16.2435 19.1565 18.3487C20.313 16.8347 21 14.9428 21 12.8904C21 7.91985 16.9706 3.89041 12 3.89041C7.02944 3.89041 3 7.91985 3 12.8904ZM12 21.8904C9.84977 21.8904 7.87565 21.1364 6.32767 19.8783C7.59352 18.0716 9.69106 16.8904 12.0645 16.8904C14.4084 16.8904 16.4833 18.0425 17.7538 19.8113C16.1939 21.1095 14.1881 21.8904 12 21.8904Z" fill="#6622E0"/>
</svg>
