<svg xmlns="http://www.w3.org/2000/svg" width="35" height="35"><g fill="#fafafa"><rect width="7" height="7"/><rect width="7" height="7" fill="#d5e0ec" x="7"/><rect width="7" height="7" fill="#a4a2b2" x="14"/><rect width="7" height="7" fill="#fafaf9" x="21"/><rect width="7" height="7" fill="#efeeef" x="28"/><rect width="7" height="7" fill="#fafaf9" y="7"/><rect width="7" height="7" fill="#49a9d4" x="7" y="7"/><rect width="7" height="7" fill="#6f87a4" x="14" y="7"/><rect width="7" height="7" fill="#e9e8df" x="21" y="7"/><rect width="7" height="7" fill="#b5acbc" x="28" y="7"/><rect width="7" height="7" fill="#f9f9f9" y="14"/><rect width="7" height="7" fill="#c1d0a4" x="7" y="14"/><rect width="7" height="7" fill="#dbdbdc" x="14" y="14"/><rect width="7" height="7" fill="#e0dfe5" x="21" y="14"/><rect width="7" height="7" fill="#c1b9c5" x="28" y="14"/><rect width="7" height="7" fill="#a079d2" y="21"/><rect width="7" height="7" fill="#a57ccc" x="7" y="21"/><rect width="7" height="7" fill="#a06acb" x="14" y="21"/><rect width="7" height="7" fill="#ad7ccb" x="21" y="21"/><rect width="7" height="7" fill="#ad7aca" x="28" y="21"/><rect width="7" height="7" fill="#9140be" y="28"/><rect width="7" height="7" fill="#9841ba" x="7" y="28"/><rect width="7" height="7" fill="#9d42b7" x="14" y="28"/><rect width="7" height="7" fill="#a443b4" x="21" y="28"/><rect width="7" height="7" fill="#aa45b2" x="28" y="28"/></g></svg>