<svg xmlns="http://www.w3.org/2000/svg" width="35" height="35"><g fill="#f0f3f5"><rect width="7" height="7"/><rect width="7" height="7" x="7"/><rect width="7" height="7" fill="#eff3f5" x="14"/><rect width="7" height="7" fill="#eff2f4" x="21"/><rect width="7" height="7" fill="#eff2f4" x="28"/><rect width="7" height="7" fill="#eaf0f4" y="7"/><rect width="7" height="7" fill="#e5ecf1" x="7" y="7"/><rect width="7" height="7" fill="#e8edf2" x="14" y="7"/><rect width="7" height="7" fill="#e8edf2" x="21" y="7"/><rect width="7" height="7" fill="#e7edf1" x="28" y="7"/><rect width="7" height="7" fill="#e0e9f0" y="14"/><rect width="7" height="7" fill="#e5eef4" x="7" y="14"/><rect width="7" height="7" fill="#e4ebf1" x="14" y="14"/><rect width="7" height="7" fill="#e4edf2" x="21" y="14"/><rect width="7" height="7" fill="#e6eff4" x="28" y="14"/><rect width="7" height="7" fill="#d7e4ec" y="21"/><rect width="7" height="7" fill="#dae6ee" x="7" y="21"/><rect width="7" height="7" fill="#dde7ef" x="14" y="21"/><rect width="7" height="7" fill="#deeaf1" x="21" y="21"/><rect width="7" height="7" fill="#deeaf1" x="28" y="21"/><rect width="7" height="7" fill="#d1e1ea" y="28"/><rect width="7" height="7" fill="#d6e2ec" x="7" y="28"/><rect width="7" height="7" fill="#d9e6ef" x="14" y="28"/><rect width="7" height="7" fill="#cfdaeb" x="21" y="28"/><rect width="7" height="7" fill="#b1c2db" x="28" y="28"/></g></svg>