<svg width="25" height="25" viewBox="0 0 25 25" fill="none" xmlns="http://www.w3.org/2000/svg">
<rect width="24" height="24" transform="translate(0.982971 0.890411)" fill="white" fill-opacity="0.01"/>
<path fill-rule="evenodd" clip-rule="evenodd" d="M9.27498 11.1834C9.08817 11.3723 8.9834 11.6272 8.9834 11.8929C8.9834 12.1586 9.08817 12.4135 9.27498 12.6024L12.214 15.5674C12.432 15.7824 12.714 15.8894 12.993 15.8894C13.272 15.8894 13.549 15.7824 13.762 15.5674L16.692 12.6124C16.8785 12.4234 16.9832 12.1685 16.9832 11.9029C16.9832 11.6373 16.8785 11.3824 16.692 11.1934C16.6001 11.1002 16.4907 11.0262 16.37 10.9757C16.2493 10.9252 16.1198 10.8992 15.989 10.8992C15.8581 10.8992 15.7286 10.9252 15.6079 10.9757C15.4873 11.0262 15.3778 11.1002 15.286 11.1934L12.988 13.5104L10.681 11.1834C10.5889 11.0906 10.4794 11.0169 10.3588 10.9666C10.2381 10.9164 10.1087 10.8905 9.97798 10.8905C9.84726 10.8905 9.71784 10.9164 9.59718 10.9666C9.47652 11.0169 9.36702 11.0906 9.27498 11.1834Z" fill="#5300A7"/>
</svg>
