<svg xmlns="http://www.w3.org/2000/svg" width="126" height="96"><g fill="#000000"><rect width="31" height="19"/><rect width="31" height="19" x="31"/><rect width="31" height="19" x="62"/><rect width="31" height="19" x="93"/><rect width="31" height="19" fill="#6722e1" y="19"/><rect width="31" height="19" x="31" y="19"/><rect width="31" height="19" x="62" y="19"/><rect width="31" height="19" fill="#6622e0" x="93" y="19"/><rect width="31" height="19" fill="#6620df" y="38"/><rect width="31" height="19" fill="#6522df" x="31" y="38"/><rect width="31" height="19" fill="#6520df" x="62" y="38"/><rect width="31" height="19" x="93" y="38"/><rect width="31" height="19" y="57"/><rect width="31" height="19" x="31" y="57"/><rect width="31" height="19" x="62" y="57"/><rect width="31" height="19" x="93" y="57"/><rect width="31" height="19" fill="#6522df" y="76"/><rect width="31" height="19" fill="#6622df" x="31" y="76"/><rect width="31" height="19" fill="#6721e0" x="62" y="76"/><rect width="31" height="19" fill="#6523df" x="93" y="76"/></g></svg>