<svg width="705" height="821" viewBox="0 0 705 821" fill="none" xmlns="http://www.w3.org/2000/svg">
<g clip-path="url(#clip0)">
<path opacity="0.07" d="M0.1 534.537C12.8 527.137 22 526.937 27.7 533.937C33.4 540.837 36.2 552.537 36.2 569.037V657.937C36.2 674.837 37.8 688.837 40.9 699.937C44 711.437 49.3 719.637 56.6 724.437C63.7 729.337 73.3 730.637 85.5 728.337C97.4 726.137 112.3 719.937 130.1 709.637L138.6 704.737V634.737L128 640.837C115.3 648.237 106.8 649.137 102.5 643.737C98 638.537 95.7 627.637 95.7 611.137V532.837C95.7 512.437 93.7 496.337 89.7 484.437C85.7 472.637 77.8 465.037 65.9 461.637C77.8 444.537 85.7 427.837 89.7 411.437C93.7 395.037 95.6 376.637 95.6 356.237V277.937C95.6 261.437 97.9 248.037 102.4 237.537C106.6 227.237 115.1 218.437 127.9 211.037L138.5 204.937V134.937L130 139.837C112.1 150.237 97.2 161.137 85.4 172.737C73.2 184.437 63.6 196.937 56.5 210.037C49.1 223.337 43.9 237.537 40.8 252.637C37.7 267.337 36.1 283.137 36.1 300.037V388.937C36.1 405.437 33.3 420.437 27.6 433.837C21.9 447.337 12.7 457.737 0 465.037L0.1 534.537Z" fill="#6622E0"/>
<path opacity="0.07" d="M322.6 279.037C309.9 286.437 300.7 286.637 295 279.637C289.3 272.737 286.5 261.037 286.5 244.537V155.637C286.5 138.737 284.9 124.737 281.8 113.637C278.7 102.137 273.6 93.8371 266.5 88.9371C259.1 84.1371 249.5 82.8371 237.6 85.0371C225.4 87.3371 210.4 93.6371 192.6 103.937L184.1 108.837V178.837L194.7 172.737C207.4 165.337 216.1 164.337 220.6 169.537C224.8 174.937 227 185.837 227 202.337V280.637C227 301.037 229 317.137 233 329.037C237 340.837 244.9 348.437 256.8 351.837C244.9 368.937 237 385.637 233 402.037C229 418.437 227.1 436.837 227.1 457.237V535.537C227.1 552.037 225 565.437 220.7 575.737C216.2 586.237 207.5 595.137 194.8 602.437L184.2 608.537V678.537L192.7 673.637C210.5 663.337 225.5 652.337 237.7 640.637C249.6 629.037 259.2 616.637 266.6 603.337C273.7 590.237 278.8 576.137 281.9 560.937C285 546.237 286.6 530.337 286.6 513.537V424.637C286.6 408.137 289.4 393.137 295.1 379.737C300.8 366.237 310 355.837 322.7 348.537L322.6 279.037Z" fill="url(#paint0_linear)"/>
<path opacity="0.4" d="M40.1 566.537C52.8 559.137 62 558.937 67.7 565.937C73.4 572.837 76.2 584.537 76.2 601.037V689.937C76.2 706.837 77.8 720.837 80.9 731.937C84 743.437 89.3 751.637 96.6 756.437C103.7 761.337 113.3 762.637 125.5 760.337C137.4 758.137 152.3 751.937 170.1 741.637L178.6 736.737V666.737L168 672.837C155.3 680.237 146.8 681.137 142.5 675.737C138 670.537 135.7 659.637 135.7 643.137V564.837C135.7 544.437 133.7 528.337 129.7 516.437C125.7 504.637 117.8 497.037 105.9 493.637C117.8 476.537 125.7 459.837 129.7 443.437C133.7 427.037 135.6 408.637 135.6 388.237V309.937C135.6 293.437 137.9 280.037 142.4 269.537C146.6 259.237 155.1 250.437 167.9 243.037L178.5 236.937V166.937L170 171.837C152.2 182.137 137.3 193.037 125.4 204.637C113.2 216.337 103.6 228.837 96.5 241.937C89.1 255.237 83.9 269.437 80.8 284.537C77.7 299.337 76.1 315.137 76.1 332.037V420.937C76.1 437.437 73.3 452.437 67.6 465.837C61.9 479.237 52.8 489.737 40 497.037L40.1 566.537Z" fill="url(#paint1_linear)"/>
<path opacity="0.4" d="M362.6 309.037C349.9 316.437 340.7 316.637 335 309.637C329.3 302.737 326.5 291.037 326.5 274.537V185.637C326.5 168.737 324.9 154.737 321.8 143.637C318.7 132.137 313.6 123.837 306.5 118.937C299.1 114.137 289.5 112.837 277.6 115.037C265.4 117.337 250.4 123.637 232.6 133.937L224.1 138.837V208.837L234.7 202.737C247.4 195.337 256.1 194.337 260.6 199.537C264.8 204.937 267 215.837 267 232.337V310.637C267 331.037 269 347.137 273 359.037C277 370.837 284.9 378.437 296.8 381.837C284.9 398.937 277 415.637 273 432.037C269 448.437 267.1 466.837 267.1 487.237V565.537C267.1 582.037 265 595.437 260.7 605.737C256.2 616.237 247.5 625.137 234.8 632.437L224.2 638.537V708.537L232.7 703.637C250.5 693.337 265.5 682.337 277.7 670.637C289.6 659.037 299.2 646.637 306.6 633.337C313.7 620.237 318.8 606.137 321.9 590.937C325 576.237 326.6 560.337 326.6 543.537V454.637C326.6 438.137 329.4 423.137 335.1 409.737C340.8 396.237 350 385.837 362.7 378.537L362.6 309.037Z" fill="url(#paint2_linear)"/>
<path d="M616.7 159.137L480.8 237.637V275.237L616.7 196.737V159.137Z" fill="#7414C0"/>
<path opacity="0.2" d="M545 156.527C545 164.827 549.9 168.727 555.9 165.327C561.9 161.827 566.7 152.327 566.7 144.027C566.7 135.727 561.8 131.827 555.8 135.227C549.8 138.727 545 148.227 545 156.527Z" fill="#6622E0"/>
<path opacity="0.15" d="M374.6 475.737L203.7 574.437L203.8 983.737L374.7 885.037L374.6 475.737Z" fill="url(#paint3_linear)"/>
<path d="M309.5 594.837L173.6 673.337V710.937L309.5 632.437V594.837Z" fill="#5300A7"/>
<path opacity="0.15" d="M353.5 633.737L222.8 709.237V767.737L353.5 692.237V633.737Z" fill="#6622E0"/>
<path opacity="0.15" d="M353.6 717.337L222.8 792.837V806.437L353.6 731.037V717.337Z" fill="#6622E0"/>
<path opacity="0.15" d="M353.6 741.937L240.5 807.237V820.837L353.6 755.537V741.937Z" fill="#6622E0"/>
<path opacity="0.2" d="M514.7 696.137C508.7 699.637 503.9 707.937 503.9 714.937V745.437L483.7 757.037C477.7 760.537 472.9 768.837 472.9 775.837C472.9 782.737 477.8 785.537 483.7 782.137L503.9 770.537V801.037C503.9 807.937 508.8 810.737 514.7 807.337C520.7 803.837 525.5 795.537 525.5 788.537V758.037L545.7 746.437C551.7 742.937 556.5 734.637 556.5 727.637C556.5 720.737 551.6 717.937 545.7 721.337L525.5 732.937V702.437C525.5 695.437 520.7 692.637 514.7 696.137Z" fill="url(#paint4_linear)"/>
<path opacity="0.3" d="M494.8 1.59214C488.5 5.19214 483.5 13.9921 483.5 21.1921V214.392L426.2 247.492V446.792C426.2 453.992 431.3 456.892 437.5 453.292C443.8 449.692 448.8 440.892 448.8 433.692V260.492L506.1 227.392V7.99214C506.2 0.892136 501.1 -2.10786 494.8 1.59214Z" fill="url(#paint5_linear)"/>
<path opacity="0.3" d="M375.5 143.292C369.2 146.892 364.2 155.692 364.2 162.892V491.592C364.2 498.792 369.3 501.692 375.5 498.092C381.8 494.492 386.8 485.692 386.8 478.492V149.792C386.8 142.592 381.7 139.692 375.5 143.292Z" fill="url(#paint6_linear)"/>
<path opacity="0.3" d="M249.4 308.192C255.7 304.592 260.7 307.492 260.7 314.692V412.292L318 379.192V499.092C318 506.292 312.9 515.092 306.7 518.692C300.4 522.292 295.4 519.392 295.4 512.192V418.392L238.1 451.492V327.792C238.1 320.592 243.1 311.792 249.4 308.192Z" fill="url(#paint7_linear)"/>
<path d="M224 342.592C224 362.192 235.5 371.392 249.6 363.292C263.7 355.092 275.2 332.692 275.2 313.092C275.2 293.492 263.7 284.292 249.6 292.392C235.5 300.492 224 323.092 224 342.592Z" fill="#5300A7"/>
<path opacity="0.07" d="M664.8 167L365 340V498.7L664.9 325.6L664.8 167Z" fill="url(#paint8_linear)"/>
<path opacity="0.3" d="M704.8 187L405 360V518.7L704.9 345.6L704.8 187Z" fill="url(#paint9_linear)"/>
<path d="M678 281.5C678 294.3 670.4 309 661.1 314.4C651.8 319.8 644.2 313.8 644.2 301C644.2 288.2 651.8 273.5 661.1 268.1C670.4 262.7 678 268.7 678 281.5Z" fill="#5300A7"/>
<path opacity="0.15" d="M635.7 306.2C635.7 312.1 632.2 319 627.8 321.5C623.5 324 620 321.2 620 315.3C620 309.4 623.5 302.5 627.9 300C632.2 297.5 635.7 300.3 635.7 306.2Z" fill="url(#paint10_linear)"/>
<path opacity="0.15" d="M611.6 320.1C611.6 326 608.1 332.9 603.7 335.4C599.4 337.9 595.9 335.1 595.9 329.2C595.9 323.3 599.4 316.4 603.8 313.9C608.1 311.4 611.6 314.2 611.6 320.1Z" fill="url(#paint11_linear)"/>
<path opacity="0.15" d="M480.7 347.1V437.4L492.5 430.6V340.3L480.7 347.1Z" fill="url(#paint12_linear)"/>
<path opacity="0.15" d="M454.9 362.1V452.4L466.7 445.6V355.3L454.9 362.1Z" fill="url(#paint13_linear)"/>
<path opacity="0.15" d="M429 377.1V467.4L440.8 460.6V370.3L429 377.1Z" fill="url(#paint14_linear)"/>
<path opacity="0.07" d="M664.9 383.899L365 556.999V715.699L664.9 542.599V383.899Z" fill="url(#paint15_linear)"/>
<path opacity="0.3" d="M704.9 404.899L405 577.999V736.699L704.9 563.599V404.899Z" fill="url(#paint16_linear)"/>
<path d="M678 499.4C678 512.2 670.4 526.9 661.1 532.3C651.8 537.7 644.2 531.7 644.2 518.9C644.2 506.1 651.8 491.4 661.1 486C670.4 480.6 678 486.6 678 499.4Z" fill="#5300A7"/>
<path opacity="0.15" d="M635.7 524.2C635.7 530.1 632.2 537 627.8 539.5C623.5 542 620 539.2 620 533.3C620 527.4 623.5 520.5 627.9 518C632.2 515.5 635.7 518.2 635.7 524.2Z" fill="url(#paint17_linear)"/>
<path opacity="0.15" d="M611.6 538.1C611.6 544 608.1 550.9 603.7 553.4C599.4 555.9 595.9 553.1 595.9 547.2C595.9 541.3 599.4 534.4 603.8 531.9C608.1 529.3 611.7 532.1 611.6 538.1Z" fill="url(#paint18_linear)"/>
<path opacity="0.15" d="M480.7 568.1V658.4L492.5 651.6V561.3L480.7 568.1Z" fill="url(#paint19_linear)"/>
<path opacity="0.15" d="M454.9 583.1V673.4L466.7 666.6V576.3L454.9 583.1Z" fill="url(#paint20_linear)"/>
<path opacity="0.15" d="M429 598.1V688.4L440.8 681.6V591.3L429 598.1Z" fill="url(#paint21_linear)"/>
</g>
<defs>
<linearGradient id="paint0_linear" x1="55.7437" y1="86.884" x2="302.374" y2="514.332" gradientUnits="userSpaceOnUse">
<stop stop-color="#6622E0"/>
<stop offset="1" stop-color="#5B00FF"/>
</linearGradient>
<linearGradient id="paint1_linear" x1="-22.8438" y1="187.156" x2="223.787" y2="614.603" gradientUnits="userSpaceOnUse">
<stop offset="0.322917" stop-color="#6622E0"/>
<stop offset="1" stop-color="#5B00FF" stop-opacity="0"/>
</linearGradient>
<linearGradient id="paint2_linear" x1="95.7438" y1="116.884" x2="342.374" y2="544.332" gradientUnits="userSpaceOnUse">
<stop stop-color="#6622E0"/>
<stop offset="1" stop-color="#6622E0"/>
</linearGradient>
<linearGradient id="paint3_linear" x1="200.577" y1="576.216" x2="363.845" y2="859.079" gradientUnits="userSpaceOnUse">
<stop stop-color="#6622E0"/>
<stop offset="1" stop-color="white" stop-opacity="0"/>
</linearGradient>
<linearGradient id="paint4_linear" x1="493.81" y1="735.1" x2="546.183" y2="776.405" gradientUnits="userSpaceOnUse">
<stop stop-color="#6622E0"/>
<stop offset="1" stop-color="#753DF3"/>
</linearGradient>
<linearGradient id="paint5_linear" x1="466.15" y1="0" x2="466.15" y2="454.838" gradientUnits="userSpaceOnUse">
<stop stop-color="#6622E0"/>
<stop offset="1" stop-color="#6622E0" stop-opacity="0"/>
</linearGradient>
<linearGradient id="paint6_linear" x1="375.5" y1="141.746" x2="375.5" y2="499.638" gradientUnits="userSpaceOnUse">
<stop stop-color="#6622E0"/>
<stop offset="1" stop-color="#6622E0" stop-opacity="0"/>
</linearGradient>
<linearGradient id="paint7_linear" x1="278.05" y1="306.646" x2="278.05" y2="520.238" gradientUnits="userSpaceOnUse">
<stop stop-color="#6622E0"/>
<stop offset="1" stop-color="#6622E0" stop-opacity="0"/>
</linearGradient>
<linearGradient id="paint8_linear" x1="521.019" y1="179.691" x2="509.845" y2="460.409" gradientUnits="userSpaceOnUse">
<stop stop-color="#6622E0"/>
<stop offset="1" stop-color="white" stop-opacity="0"/>
</linearGradient>
<linearGradient id="paint9_linear" x1="561.021" y1="199.691" x2="549.847" y2="480.409" gradientUnits="userSpaceOnUse">
<stop stop-color="#6622E0"/>
<stop offset="1" stop-color="white" stop-opacity="0"/>
</linearGradient>
<linearGradient id="paint10_linear" x1="627.85" y1="299.084" x2="627.85" y2="322.415" gradientUnits="userSpaceOnUse">
<stop stop-color="#6622E0"/>
<stop offset="1" stop-color="#753DF3" stop-opacity="0"/>
</linearGradient>
<linearGradient id="paint11_linear" x1="603.75" y1="312.984" x2="603.75" y2="336.316" gradientUnits="userSpaceOnUse">
<stop stop-color="#6622E0"/>
<stop offset="1" stop-color="#753DF3" stop-opacity="0"/>
</linearGradient>
<linearGradient id="paint12_linear" x1="486.6" y1="340.3" x2="486.6" y2="437.4" gradientUnits="userSpaceOnUse">
<stop stop-color="#6622E0"/>
<stop offset="1" stop-color="#753DF3" stop-opacity="0"/>
</linearGradient>
<linearGradient id="paint13_linear" x1="460.8" y1="355.3" x2="460.8" y2="452.4" gradientUnits="userSpaceOnUse">
<stop stop-color="#6622E0"/>
<stop offset="1" stop-color="#753DF3" stop-opacity="0"/>
</linearGradient>
<linearGradient id="paint14_linear" x1="434.9" y1="370.3" x2="434.9" y2="467.4" gradientUnits="userSpaceOnUse">
<stop stop-color="#6622E0"/>
<stop offset="1" stop-color="#753DF3" stop-opacity="0"/>
</linearGradient>
<linearGradient id="paint15_linear" x1="521.041" y1="396.624" x2="509.867" y2="677.342" gradientUnits="userSpaceOnUse">
<stop stop-color="#753DF3"/>
<stop offset="1" stop-color="white" stop-opacity="0"/>
</linearGradient>
<linearGradient id="paint16_linear" x1="561.043" y1="417.623" x2="549.869" y2="698.342" gradientUnits="userSpaceOnUse">
<stop stop-color="#753DF3"/>
<stop offset="1" stop-color="white" stop-opacity="0"/>
</linearGradient>
<linearGradient id="paint17_linear" x1="627.85" y1="517.07" x2="627.85" y2="540.416" gradientUnits="userSpaceOnUse">
<stop stop-color="#6622E0"/>
<stop offset="1" stop-color="#753DF3" stop-opacity="0"/>
</linearGradient>
<linearGradient id="paint18_linear" x1="603.751" y1="530.928" x2="603.751" y2="554.315" gradientUnits="userSpaceOnUse">
<stop stop-color="#6622E0"/>
<stop offset="1" stop-color="#753DF3" stop-opacity="0"/>
</linearGradient>
<linearGradient id="paint19_linear" x1="486.6" y1="561.3" x2="486.6" y2="658.4" gradientUnits="userSpaceOnUse">
<stop stop-color="#6622E0"/>
<stop offset="1" stop-color="#753DF3" stop-opacity="0"/>
</linearGradient>
<linearGradient id="paint20_linear" x1="460.8" y1="576.3" x2="460.8" y2="673.4" gradientUnits="userSpaceOnUse">
<stop stop-color="#6622E0"/>
<stop offset="1" stop-color="#753DF3" stop-opacity="0"/>
</linearGradient>
<linearGradient id="paint21_linear" x1="434.9" y1="591.3" x2="434.9" y2="688.4" gradientUnits="userSpaceOnUse">
<stop stop-color="#6622E0"/>
<stop offset="1" stop-color="#753DF3" stop-opacity="0"/>
</linearGradient>
<clipPath id="clip0">
<rect width="705" height="821" fill="white"/>
</clipPath>
</defs>
</svg>
